# xmcd CD database file
#
# Track frame offsets:
#	183
#	30508
#	57165
#	88513
#	120060
#	138335
#	165870
#
# Disc length: 2458 seconds
#
# Revision: 1
# Processed by: cddbd v1.5.2PL0 Copyright (c) Steve Scherf et al.
# Submitted via: CDex 1.51
#
DISCID=43099807
DTITLE=Various Artist - Violin Summit
DYEAR=1967
DGENRE=Jazz
TTITLE0=Summit Soul
TTITLE1=Pentup House
TTITLE2=Timme's Blues
TTITLE3=It Don't Mean a Thing
TTITLE4=Pennies From Heaven
TTITLE5=Only Time Will Tell
TTITLE6=Hot Toddy
EXTD=YEAR: 1967
EXTT0=
EXTT1=
EXTT2=
EXTT3=
EXTT4=
EXTT5=
EXTT6=
PLAYORDER=
